<?xml version="1.0" encoding="UTF-8"?>
<svg id="_レイヤー_2" xmlns="http://www.w3.org/2000/svg" version="1.1" viewBox="0 0 119 35.5">
  <!-- Generator: Adobe Illustrator 29.8.1, SVG Export Plug-In . SVG Version: 2.1.1 Build 2)  -->
  <defs>
    <style>
      .st0 {
        fill: #242625;
      }

      .st1 {
        fill: #0f2b49;
      }
    </style>
  </defs>
  <g id="_レイヤー_1-2">
    <g id="_アートワーク_8">
      <g id="_レイヤー_1-3">
        <g>
          <polygon class="st0" points="44.89 4.44 48.44 4.44 51.69 12.59 54.92 4.44 58.37 4.44 53.03 17.17 50.24 17.17 44.89 4.44"/>
          <g>
            <path class="st0" d="M67.16,12.26v4.9h-3.44V4.44h5.8c3.11,0,4.43,1.87,4.43,3.92,0,1.72-.98,3.08-2.49,3.56l3.71,5.24h-3.71l-3.4-4.9h-.91.01ZM68.65,10.08c1.32,0,1.91-.6,1.91-1.67s-.6-1.7-1.91-1.7h-1.49v3.37h1.49Z"/>
            <path class="st0" d="M84.35,4.44h2.91l5.35,12.73h-3.42l-1.08-2.72h-4.72l-1.06,2.72h-3.33s5.35-12.73,5.35-12.73ZM87.27,12.23l-1.53-4.01-1.53,4.01h3.06Z"/>
            <rect class="st0" x="97.98" y="4.44" width="3.44" height="12.73"/>
            <polygon class="st0" points="107.58 4.44 110.19 4.44 115.96 11.76 115.96 4.44 119 4.44 119 17.17 116.39 17.17 110.62 9.85 110.62 17.17 107.58 17.17 107.58 4.44"/>
            <path class="st0" d="M63.82,30.08l.24-.99c.48.53,1.29,1.1,2.45,1.1.96,0,1.7-.54,1.7-1.42,0-.82-.41-1.27-1.91-1.67-1.52-.4-2.25-1.23-2.25-2.35s.95-2.09,2.6-2.09c.92,0,1.74.37,2.19.74l-.25.84c-.54-.38-1.29-.71-1.95-.71-1.01,0-1.59.47-1.59,1.23,0,.57.36,1.06,1.63,1.39,1.73.46,2.53,1.21,2.53,2.54,0,1.57-1.32,2.38-2.7,2.38s-2.24-.52-2.69-.98"/>
            <path class="st0" d="M72.75,31c-1.42,0-2.51-1.08-2.51-2.36s1.09-2.35,2.51-2.35,2.51,1.07,2.51,2.35-1.09,2.36-2.51,2.36M72.75,27.01c-.9,0-1.58.67-1.58,1.63s.68,1.64,1.58,1.64,1.58-.69,1.58-1.64-.66-1.63-1.58-1.63"/>
            <rect class="st0" x="76.3" y="23.18" width=".93" height="7.63"/>
            <path class="st0" d="M82.03,30.81l-.07-.75c-.29.48-1.04.91-1.76.91-1.17,0-1.63-.81-1.63-1.9v-2.61h.93v2.56c0,.83.35,1.19,1,1.19.62,0,1.42-.55,1.42-1.27v-2.48h.93v4.34h-.83Z"/>
            <polygon class="st0" points="85.67 27.09 85.67 30.81 84.74 30.81 84.74 27.09 83.86 27.09 83.86 26.47 84.74 26.47 84.74 25.01 85.67 25.01 85.67 26.47 86.53 26.47 86.53 27.09 85.67 27.09"/>
            <path class="st0" d="M87.52,23.98h.93v1.01h-.93v-1.01ZM87.52,26.47h.93v4.34h-.93s0-4.34,0-4.34Z"/>
            <path class="st0" d="M92.01,31c-1.42,0-2.51-1.08-2.51-2.36s1.09-2.35,2.51-2.35,2.51,1.07,2.51,2.35-1.09,2.36-2.51,2.36M92.01,27.01c-.9,0-1.58.67-1.58,1.63s.68,1.64,1.58,1.64,1.58-.69,1.58-1.64-.66-1.63-1.58-1.63"/>
            <path class="st0" d="M98.92,30.81v-2.56c0-.82-.35-1.19-1-1.19-.62,0-1.42.55-1.42,1.27v2.48h-.93v-4.34h.82l.07.75c.29-.48,1.04-.92,1.76-.92,1.17,0,1.63.82,1.63,1.9v2.61h-.93.01Z"/>
            <polygon class="st1" points="26.04 10.93 19.73 7.28 19.73 5.46 27.62 10.02 30.78 8.19 16.58 0 16.58 9.11 19.73 10.93 19.73 10.93 18.15 11.84 16.58 10.93 16.58 14.57 18.15 15.48 26.04 10.93"/>
            <polygon class="st1" points="14.99 14.57 14.99 0 8.58 3.71 11.84 5.46 11.84 10.93 7.1 8.19 7.21 4.5 .79 8.19 13.41 15.48 14.99 14.57"/>
            <polygon class="st1" points="31.57 16.96 31.57 9.56 18.94 16.84 18.94 19.57 15.79 21.39 12.63 19.57 12.63 16.84 4.74 12.29 4.74 19.57 3.16 20.48 3.16 11.38 0 9.56 0 25.94 7.89 21.39 7.89 17.75 9.48 18.66 9.48 21.39 10.26 21.84 .79 27.31 7.21 31 7.1 27.31 11.84 24.57 11.84 30.04 8.58 31.79 15 35.5 15 24.57 15.79 25.03 16.58 24.57 16.58 30.04 22.89 26.39 24.47 27.31 16.58 31.86 16.58 35.5 30.78 27.31 22.89 22.75 19.73 24.57 19.73 24.57 19.73 22.75 22.1 21.39 22.1 20.48 31.57 25.94 31.57 18.54 28.41 20.48 23.68 17.75 28.41 15.02 31.57 16.96"/>
          </g>
        </g>
      </g>
    </g>
  </g>
</svg>