<svg id="グループ_11" data-name="グループ 11" xmlns="http://www.w3.org/2000/svg" xmlns:xlink="http://www.w3.org/1999/xlink" width="19.169" height="25" viewBox="0 0 19.169 25">
  <defs>
    <clipPath id="clip-path">
      <rect id="長方形_21" data-name="長方形 21" width="19.169" height="25" fill="#0f2b49"/>
    </clipPath>
  </defs>
  <g id="グループ_10" data-name="グループ 10" clip-path="url(#clip-path)">
    <path id="パス_22" data-name="パス 22" d="M1.714,1.06C0,2.174-.341,5.656.307,8.494A25.637,25.637,0,0,0,3.7,16.461a26.624,26.624,0,0,0,5.892,6.344c2.327,1.75,5.644,2.862,7.362,1.748a8.7,8.7,0,0,0,2.218-2.379l-.923-1.423-2.538-3.913c-.189-.291-1.371-.025-1.972.315a5.72,5.72,0,0,0-1.557,1.691c-.556.321-1.021,0-1.994-.446-1.2-.55-2.539-2.258-3.608-3.806-.977-1.608-1.989-3.531-2-4.847-.012-1.07-.114-1.626.405-2a5.721,5.721,0,0,0,2.179-.732C7.714,6.6,8.439,5.631,8.251,5.34L5.713,1.427,4.79,0A8.7,8.7,0,0,0,1.714,1.06" transform="translate(0 0)" fill="#0f2b49"/>
  </g>
</svg>
