<svg id="グループ_9" data-name="グループ 9" xmlns="http://www.w3.org/2000/svg" xmlns:xlink="http://www.w3.org/1999/xlink" width="30" height="24.876" viewBox="0 0 30 24.876">
  <defs>
    <clipPath id="clip-path">
      <rect id="長方形_20" data-name="長方形 20" width="30" height="24.876" fill="#0f2b49"/>
    </clipPath>
  </defs>
  <g id="グループ_8" data-name="グループ 8" clip-path="url(#clip-path)">
    <path id="パス_20" data-name="パス 20" d="M20.232,5.145V3.263A3.263,3.263,0,0,0,16.969,0H3.263A3.263,3.263,0,0,0,0,3.263V13.481a3.263,3.263,0,0,0,3.263,3.263h1.2l-.977,4.884,6.684-4.884h1.253v-6.5a5.1,5.1,0,0,1,5.095-5.094Z" fill="#0f2b49"/>
    <path id="パス_21" data-name="パス 21" d="M239.717,119.066H229.5a3.263,3.263,0,0,0-3.263,3.263v7.331a3.263,3.263,0,0,0,3.263,3.263h5.063l5.531,4.042-.808-4.042h.432a3.263,3.263,0,0,0,3.263-3.263v-7.331a3.263,3.263,0,0,0-3.263-3.263" transform="translate(-212.98 -112.089)" fill="#0f2b49"/>
  </g>
</svg>
