<svg id="グループ_7" data-name="グループ 7" xmlns="http://www.w3.org/2000/svg" xmlns:xlink="http://www.w3.org/1999/xlink" width="22.873" height="30" viewBox="0 0 22.873 30">
  <defs>
    <clipPath id="clip-path">
      <rect id="長方形_19" data-name="長方形 19" width="22.872" height="30" fill="#ea0437"/>
    </clipPath>
  </defs>
  <g id="グループ_6" data-name="グループ 6" clip-path="url(#clip-path)">
    <path id="パス_15" data-name="パス 15" d="M20.171,56.585H17.79V58.1a2.579,2.579,0,0,1-.056.533h2.693a.54.54,0,0,1,.54.54V80.061a.54.54,0,0,1-.54.54H2.446a.54.54,0,0,1-.54-.54V59.175a.54.54,0,0,1,.54-.54H5.139a2.579,2.579,0,0,1-.056-.533V56.585H2.7a2.7,2.7,0,0,0-2.7,2.7V80.568a2.7,2.7,0,0,0,2.7,2.7h17.47a2.7,2.7,0,0,0,2.7-2.7V59.286a2.7,2.7,0,0,0-2.7-2.7" transform="translate(0 -53.269)" fill="#ea0437"/>
    <path id="パス_16" data-name="パス 16" d="M104.634,6.453h7.559a1.621,1.621,0,0,0,1.621-1.621V3.209a1.621,1.621,0,0,0-1.621-1.621h-2.048a1.738,1.738,0,0,0-3.463,0h-2.048a1.621,1.621,0,0,0-1.621,1.621V4.832a1.621,1.621,0,0,0,1.621,1.621m3.779-5.5a.794.794,0,1,1-.794.794.794.794,0,0,1,.794-.794" transform="translate(-96.977)" fill="#ea0437"/>
    <path id="パス_17" data-name="パス 17" d="M82.785,162.007l.7-.7L85.4,159.4l-.7-.7-1.914,1.914L81.567,159.4l-.7.7Z" transform="translate(-76.132 -149.402)" fill="#ea0437"/>
    <path id="パス_18" data-name="パス 18" d="M84.7,244.091,82.785,246l-1.218-1.218-.7.7,1.914,1.914.7-.7,1.914-1.914Z" transform="translate(-76.132 -229.789)" fill="#ea0437"/>
    <path id="パス_19" data-name="パス 19" d="M81.567,330.177l-.7.7,1.914,1.914.7-.7,1.914-1.914-.7-.7-1.914,1.914Z" transform="translate(-76.132 -310.176)" fill="#ea0437"/>
  </g>
</svg>
