<?xml version="1.0" encoding="UTF-8"?>
<svg id="_レイヤー_2" xmlns="http://www.w3.org/2000/svg" version="1.1" viewBox="0 0 119 35.5">
  <!-- Generator: Adobe Illustrator 29.8.1, SVG Export Plug-In . SVG Version: 2.1.1 Build 2)  -->
  <defs>
    <style>
      .st0 {
        fill: #fff;
      }
    </style>
  </defs>
  <g id="_レイヤー_1-2">
    <g id="_アートワーク_160">
      <g id="_レイヤー_1-3">
        <g>
          <polygon class="st0" points="44.89 4.44 48.44 4.44 51.69 12.58 54.92 4.44 58.38 4.44 53.02 17.17 50.24 17.17 44.89 4.44"/>
          <g>
            <path class="st0" d="M67.17,12.27v4.9h-3.45V4.44h5.8c3.09,0,4.45,1.87,4.45,3.92,0,1.71-.97,3.08-2.49,3.56l3.71,5.24h-3.71l-3.4-4.9h-.91.01ZM68.67,10.09c1.32,0,1.91-.59,1.91-1.67s-.59-1.7-1.91-1.7h-1.49v3.37s1.49,0,1.49,0Z"/>
            <path class="st0" d="M84.35,4.44h2.91l5.35,12.73h-3.42l-1.08-2.71h-4.71l-1.06,2.71h-3.33s5.35-12.73,5.35-12.73ZM87.28,12.23l-1.53-4.01-1.53,4.01h3.07Z"/>
            <rect class="st0" x="97.98" y="4.44" width="3.43" height="12.73"/>
            <polygon class="st0" points="107.58 4.44 110.19 4.44 115.96 11.76 115.96 4.44 119 4.44 119 17.17 116.4 17.17 110.62 9.85 110.62 17.17 107.58 17.17 107.58 4.44"/>
            <path class="st0" d="M63.83,30.08l.24-1c.48.52,1.29,1.1,2.45,1.1.96,0,1.7-.53,1.7-1.41,0-.82-.41-1.28-1.91-1.67-1.52-.41-2.25-1.22-2.25-2.35s.94-2.09,2.6-2.09c.93,0,1.74.38,2.19.74l-.24.84c-.53-.39-1.29-.72-1.96-.72-1.01,0-1.59.48-1.59,1.22,0,.58.37,1.07,1.63,1.41,1.73.45,2.53,1.21,2.53,2.54,0,1.57-1.32,2.38-2.7,2.38s-2.25-.52-2.69-.98"/>
            <path class="st0" d="M72.74,31c-1.42,0-2.5-1.08-2.5-2.36s1.1-2.35,2.5-2.35,2.5,1.07,2.5,2.35-1.1,2.36-2.5,2.36M72.74,27.01c-.9,0-1.58.67-1.58,1.63s.68,1.64,1.58,1.64,1.58-.69,1.58-1.64-.66-1.63-1.58-1.63"/>
            <rect class="st0" x="76.3" y="23.17" width=".93" height="7.63"/>
            <path class="st0" d="M82.03,30.82l-.07-.76c-.3.48-1.03.91-1.76.91-1.17,0-1.63-.82-1.63-1.9v-2.61h.93v2.56c0,.83.35,1.19,1.01,1.19.62,0,1.42-.55,1.42-1.28v-2.49h.93v4.34h-.83v.03Z"/>
            <polygon class="st0" points="85.67 27.1 85.67 30.82 84.73 30.82 84.73 27.1 83.86 27.1 83.86 26.48 84.73 26.48 84.73 25.02 85.67 25.02 85.67 26.48 86.53 26.48 86.53 27.1 85.67 27.1"/>
            <path class="st0" d="M87.53,23.99h.93v1.01h-.93v-1.01ZM87.53,26.48h.93v4.34h-.93v-4.34Z"/>
            <path class="st0" d="M92,31c-1.41,0-2.5-1.08-2.5-2.36s1.1-2.35,2.5-2.35,2.5,1.07,2.5,2.35-1.1,2.36-2.5,2.36M92,27.01c-.9,0-1.58.67-1.58,1.63s.68,1.64,1.58,1.64,1.58-.69,1.58-1.64-.66-1.63-1.58-1.63"/>
            <path class="st0" d="M98.91,30.82v-2.56c0-.83-.35-1.19-1.01-1.19-.62,0-1.42.55-1.42,1.26v2.49h-.93v-4.34h.83l.07.76c.3-.49,1.03-.91,1.76-.91,1.17,0,1.63.82,1.63,1.9v2.61h-.93,0Z"/>
            <polygon class="st0" points="26.04 10.92 19.72 7.28 19.72 5.47 27.62 10.02 30.78 8.19 16.57 0 16.57 9.11 19.72 10.92 19.72 10.92 18.15 11.83 16.57 10.92 16.57 14.56 18.15 15.47 26.04 10.92"/>
            <polygon class="st0" points="15 14.56 15 0 8.58 3.7 11.83 5.47 11.83 10.92 7.1 8.19 7.2 4.5 .79 8.19 13.42 15.47 15 14.56"/>
            <polygon class="st0" points="31.57 16.96 31.57 9.56 18.94 16.84 18.94 19.58 15.78 21.39 12.62 19.56 12.63 16.84 4.74 12.28 4.74 19.56 3.15 20.48 3.15 11.38 0 9.56 0 25.94 7.89 21.39 7.89 17.75 9.47 18.66 9.47 21.39 10.26 21.84 .79 27.31 7.2 31.02 7.1 27.31 11.83 24.58 11.83 30.03 8.58 31.8 15 35.5 15 24.58 15.78 25.03 16.57 24.58 16.57 30.03 22.89 26.39 24.46 27.31 16.57 31.86 16.57 35.5 30.78 27.31 22.89 22.75 19.72 24.58 19.72 24.58 19.72 22.75 22.1 21.39 22.1 20.48 31.57 25.94 31.57 18.54 28.4 20.48 23.68 17.75 28.4 15.02 31.57 16.96"/>
          </g>
        </g>
      </g>
    </g>
  </g>
</svg>